<mxfile host="app.diagrams.net" modified="2023-11-03T08:22:04.029Z" agent="Mozilla/5.0 (Windows NT 10.0; Win64; x64) AppleWebKit/537.36 (KHTML, like Gecko) Chrome/116.0.0.0 Safari/537.36 OPR/102.0.0.0 (Edition Yx GX)" etag="lG3jLYGItpOPEqp8JzGA" version="22.0.8" type="github">
  <diagram name="Страница — 1" id="pXsodwuzetjlipatQ5AH">
    <mxGraphModel dx="1119" dy="605" grid="1" gridSize="10" guides="1" tooltips="1" connect="1" arrows="1" fold="1" page="1" pageScale="1" pageWidth="827" pageHeight="1169" math="0" shadow="0">
      <root>
        <mxCell id="0" />
        <mxCell id="1" parent="0" />
        <mxCell id="ZWVHq4lJaD7Pw3GgsXVH-1" value="&lt;font style=&quot;font-size: 49px;&quot;&gt;IEEE 802.1X&lt;/font&gt;" style="text;html=1;align=center;verticalAlign=middle;resizable=0;points=[];autosize=1;strokeColor=none;fillColor=none;" vertex="1" parent="1">
          <mxGeometry x="264" width="300" height="70" as="geometry" />
        </mxCell>
        <mxCell id="ZWVHq4lJaD7Pw3GgsXVH-3" value="" style="sketch=0;points=[[0.015,0.015,0],[0.985,0.015,0],[0.985,0.985,0],[0.015,0.985,0],[0.25,0,0],[0.5,0,0],[0.75,0,0],[1,0.25,0],[1,0.5,0],[1,0.75,0],[0.75,1,0],[0.5,1,0],[0.25,1,0],[0,0.75,0],[0,0.5,0],[0,0.25,0]];verticalLabelPosition=bottom;html=1;verticalAlign=top;aspect=fixed;align=center;pointerEvents=1;shape=mxgraph.cisco19.rect;prIcon=l2_switch;fillColor=#FAFAFA;strokeColor=#005073;" vertex="1" parent="1">
          <mxGeometry x="50" width="50" height="50" as="geometry" />
        </mxCell>
        <mxCell id="ZWVHq4lJaD7Pw3GgsXVH-4" value="" style="sketch=0;points=[[0.015,0.015,0],[0.985,0.015,0],[0.985,0.985,0],[0.015,0.985,0],[0.25,0,0],[0.5,0,0],[0.75,0,0],[1,0.25,0],[1,0.5,0],[1,0.75,0],[0.75,1,0],[0.5,1,0],[0.25,1,0],[0,0.75,0],[0,0.5,0],[0,0.25,0]];verticalLabelPosition=bottom;html=1;verticalAlign=top;aspect=fixed;align=center;pointerEvents=1;shape=mxgraph.cisco19.rect;prIcon=l3_switch;fillColor=#FAFAFA;strokeColor=#005073;" vertex="1" parent="1">
          <mxGeometry x="99" width="50" height="50" as="geometry" />
        </mxCell>
        <mxCell id="ZWVHq4lJaD7Pw3GgsXVH-5" value="" style="sketch=0;points=[[0.5,0,0],[1,0.5,0],[0.5,1,0],[0,0.5,0],[0.145,0.145,0],[0.8555,0.145,0],[0.855,0.8555,0],[0.145,0.855,0]];verticalLabelPosition=bottom;html=1;verticalAlign=top;aspect=fixed;align=center;pointerEvents=1;shape=mxgraph.cisco19.rect;prIcon=router;fillColor=#FAFAFA;strokeColor=#005073;" vertex="1" parent="1">
          <mxGeometry x="150" width="50" height="50" as="geometry" />
        </mxCell>
        <mxCell id="ZWVHq4lJaD7Pw3GgsXVH-6" value="" style="points=[[0.03,0.03,0],[0.5,0,0],[0.97,0.03,0],[1,0.4,0],[0.97,0.745,0],[0.5,1,0],[0.03,0.745,0],[0,0.4,0]];verticalLabelPosition=bottom;sketch=0;html=1;verticalAlign=top;aspect=fixed;align=center;pointerEvents=1;shape=mxgraph.cisco19.workstation;fillColor=#005073;strokeColor=none;" vertex="1" parent="1">
          <mxGeometry width="50" height="40" as="geometry" />
        </mxCell>
        <mxCell id="ZWVHq4lJaD7Pw3GgsXVH-7" value="" style="sketch=0;points=[[0.015,0.015,0],[0.985,0.015,0],[0.985,0.985,0],[0.015,0.985,0],[0.25,0,0],[0.5,0,0],[0.75,0,0],[1,0.25,0],[1,0.5,0],[1,0.75,0],[0.75,1,0],[0.5,1,0],[0.25,1,0],[0,0.75,0],[0,0.5,0],[0,0.25,0]];verticalLabelPosition=bottom;html=1;verticalAlign=top;aspect=fixed;align=center;pointerEvents=1;shape=mxgraph.cisco19.rect;prIcon=l2_switch;fillColor=#FAFAFA;strokeColor=#005073;" vertex="1" parent="1">
          <mxGeometry x="440" y="270" width="50" height="50" as="geometry" />
        </mxCell>
        <mxCell id="ZWVHq4lJaD7Pw3GgsXVH-8" value="" style="sketch=0;points=[[0.015,0.015,0],[0.985,0.015,0],[0.985,0.985,0],[0.015,0.985,0],[0.25,0,0],[0.5,0,0],[0.75,0,0],[1,0.25,0],[1,0.5,0],[1,0.75,0],[0.75,1,0],[0.5,1,0],[0.25,1,0],[0,0.75,0],[0,0.5,0],[0,0.25,0]];verticalLabelPosition=bottom;html=1;verticalAlign=top;aspect=fixed;align=center;pointerEvents=1;shape=mxgraph.cisco19.rect;prIcon=l2_switch;fillColor=#FAFAFA;strokeColor=#005073;" vertex="1" parent="1">
          <mxGeometry x="314" y="270" width="50" height="50" as="geometry" />
        </mxCell>
        <mxCell id="ZWVHq4lJaD7Pw3GgsXVH-17" value="" style="rounded=0;orthogonalLoop=1;jettySize=auto;html=1;endArrow=none;endFill=0;" edge="1" parent="1" source="ZWVHq4lJaD7Pw3GgsXVH-9" target="ZWVHq4lJaD7Pw3GgsXVH-8">
          <mxGeometry relative="1" as="geometry" />
        </mxCell>
        <mxCell id="ZWVHq4lJaD7Pw3GgsXVH-9" value="" style="sketch=0;points=[[0.015,0.015,0],[0.985,0.015,0],[0.985,0.985,0],[0.015,0.985,0],[0.25,0,0],[0.5,0,0],[0.75,0,0],[1,0.25,0],[1,0.5,0],[1,0.75,0],[0.75,1,0],[0.5,1,0],[0.25,1,0],[0,0.75,0],[0,0.5,0],[0,0.25,0]];verticalLabelPosition=bottom;html=1;verticalAlign=top;aspect=fixed;align=center;pointerEvents=1;shape=mxgraph.cisco19.rect;prIcon=l2_switch;fillColor=#FAFAFA;strokeColor=#005073;" vertex="1" parent="1">
          <mxGeometry x="170" y="280" width="50" height="50" as="geometry" />
        </mxCell>
        <mxCell id="ZWVHq4lJaD7Pw3GgsXVH-10" value="" style="sketch=0;points=[[0.015,0.015,0],[0.985,0.015,0],[0.985,0.985,0],[0.015,0.985,0],[0.25,0,0],[0.5,0,0],[0.75,0,0],[1,0.25,0],[1,0.5,0],[1,0.75,0],[0.75,1,0],[0.5,1,0],[0.25,1,0],[0,0.75,0],[0,0.5,0],[0,0.25,0]];verticalLabelPosition=bottom;html=1;verticalAlign=top;aspect=fixed;align=center;pointerEvents=1;shape=mxgraph.cisco19.rect;prIcon=l2_switch;fillColor=#FAFAFA;strokeColor=#005073;" vertex="1" parent="1">
          <mxGeometry x="164" y="390" width="50" height="50" as="geometry" />
        </mxCell>
        <mxCell id="ZWVHq4lJaD7Pw3GgsXVH-11" value="" style="sketch=0;points=[[0.5,0,0],[1,0.5,0],[0.5,1,0],[0,0.5,0],[0.145,0.145,0],[0.8555,0.145,0],[0.855,0.8555,0],[0.145,0.855,0]];verticalLabelPosition=bottom;html=1;verticalAlign=top;aspect=fixed;align=center;pointerEvents=1;shape=mxgraph.cisco19.rect;prIcon=router;fillColor=#FAFAFA;strokeColor=#005073;" vertex="1" parent="1">
          <mxGeometry x="70" y="400" width="50" height="50" as="geometry" />
        </mxCell>
        <mxCell id="ZWVHq4lJaD7Pw3GgsXVH-12" value="" style="points=[[0.03,0.03,0],[0.5,0,0],[0.97,0.03,0],[1,0.4,0],[0.97,0.745,0],[0.5,1,0],[0.03,0.745,0],[0,0.4,0]];verticalLabelPosition=bottom;sketch=0;html=1;verticalAlign=top;aspect=fixed;align=center;pointerEvents=1;shape=mxgraph.cisco19.workstation;fillColor=#005073;strokeColor=none;" vertex="1" parent="1">
          <mxGeometry x="480" y="185" width="50" height="40" as="geometry" />
        </mxCell>
        <mxCell id="ZWVHq4lJaD7Pw3GgsXVH-13" value="" style="points=[[0.03,0.03,0],[0.5,0,0],[0.97,0.03,0],[1,0.4,0],[0.97,0.745,0],[0.5,1,0],[0.03,0.745,0],[0,0.4,0]];verticalLabelPosition=bottom;sketch=0;html=1;verticalAlign=top;aspect=fixed;align=center;pointerEvents=1;shape=mxgraph.cisco19.workstation;fillColor=#005073;strokeColor=none;" vertex="1" parent="1">
          <mxGeometry x="214" y="200" width="50" height="40" as="geometry" />
        </mxCell>
        <mxCell id="ZWVHq4lJaD7Pw3GgsXVH-14" value="" style="points=[[0.03,0.03,0],[0.5,0,0],[0.97,0.03,0],[1,0.4,0],[0.97,0.745,0],[0.5,1,0],[0.03,0.745,0],[0,0.4,0]];verticalLabelPosition=bottom;sketch=0;html=1;verticalAlign=top;aspect=fixed;align=center;pointerEvents=1;shape=mxgraph.cisco19.workstation;fillColor=#005073;strokeColor=none;" vertex="1" parent="1">
          <mxGeometry x="40" y="220" width="50" height="40" as="geometry" />
        </mxCell>
        <mxCell id="ZWVHq4lJaD7Pw3GgsXVH-15" style="rounded=0;orthogonalLoop=1;jettySize=auto;html=1;entryX=0;entryY=0.5;entryDx=0;entryDy=0;entryPerimeter=0;exitX=0.5;exitY=1;exitDx=0;exitDy=0;exitPerimeter=0;endArrow=none;endFill=0;" edge="1" parent="1" source="ZWVHq4lJaD7Pw3GgsXVH-14" target="ZWVHq4lJaD7Pw3GgsXVH-9">
          <mxGeometry relative="1" as="geometry" />
        </mxCell>
        <mxCell id="ZWVHq4lJaD7Pw3GgsXVH-18" style="rounded=0;orthogonalLoop=1;jettySize=auto;html=1;entryX=0;entryY=0.5;entryDx=0;entryDy=0;entryPerimeter=0;endArrow=none;endFill=0;" edge="1" parent="1" source="ZWVHq4lJaD7Pw3GgsXVH-8" target="ZWVHq4lJaD7Pw3GgsXVH-7">
          <mxGeometry relative="1" as="geometry" />
        </mxCell>
        <mxCell id="ZWVHq4lJaD7Pw3GgsXVH-19" style="rounded=0;orthogonalLoop=1;jettySize=auto;html=1;endArrow=none;endFill=0;" edge="1" parent="1" source="ZWVHq4lJaD7Pw3GgsXVH-12">
          <mxGeometry relative="1" as="geometry">
            <mxPoint x="486" y="280" as="targetPoint" />
          </mxGeometry>
        </mxCell>
        <mxCell id="ZWVHq4lJaD7Pw3GgsXVH-20" style="rounded=0;orthogonalLoop=1;jettySize=auto;html=1;entryX=0.5;entryY=0;entryDx=0;entryDy=0;entryPerimeter=0;endArrow=none;endFill=0;" edge="1" parent="1" source="ZWVHq4lJaD7Pw3GgsXVH-9" target="ZWVHq4lJaD7Pw3GgsXVH-10">
          <mxGeometry relative="1" as="geometry" />
        </mxCell>
        <mxCell id="ZWVHq4lJaD7Pw3GgsXVH-21" style="rounded=0;orthogonalLoop=1;jettySize=auto;html=1;entryX=0.5;entryY=1;entryDx=0;entryDy=0;entryPerimeter=0;endArrow=none;endFill=0;" edge="1" parent="1" source="ZWVHq4lJaD7Pw3GgsXVH-11" target="ZWVHq4lJaD7Pw3GgsXVH-10">
          <mxGeometry relative="1" as="geometry" />
        </mxCell>
        <mxCell id="ZWVHq4lJaD7Pw3GgsXVH-22" value="VLAN 100" style="text;html=1;align=center;verticalAlign=middle;resizable=0;points=[];autosize=1;strokeColor=none;fillColor=none;" vertex="1" parent="1">
          <mxGeometry x="25" y="190" width="80" height="30" as="geometry" />
        </mxCell>
        <mxCell id="ZWVHq4lJaD7Pw3GgsXVH-23" value="VLAN 200" style="text;html=1;align=center;verticalAlign=middle;resizable=0;points=[];autosize=1;strokeColor=none;fillColor=none;" vertex="1" parent="1">
          <mxGeometry x="199" y="170" width="80" height="30" as="geometry" />
        </mxCell>
        <mxCell id="ZWVHq4lJaD7Pw3GgsXVH-24" value="100&lt;br&gt;200" style="text;html=1;align=center;verticalAlign=middle;resizable=0;points=[];autosize=1;strokeColor=none;fillColor=none;" vertex="1" parent="1">
          <mxGeometry x="159" y="330" width="40" height="40" as="geometry" />
        </mxCell>
        <mxCell id="ZWVHq4lJaD7Pw3GgsXVH-25" value="200" style="text;html=1;align=center;verticalAlign=middle;resizable=0;points=[];autosize=1;strokeColor=none;fillColor=none;" vertex="1" parent="1">
          <mxGeometry x="219" y="280" width="40" height="30" as="geometry" />
        </mxCell>
        <mxCell id="ZWVHq4lJaD7Pw3GgsXVH-26" value="200" style="text;html=1;align=center;verticalAlign=middle;resizable=0;points=[];autosize=1;strokeColor=none;fillColor=none;" vertex="1" parent="1">
          <mxGeometry x="200" y="250" width="40" height="30" as="geometry" />
        </mxCell>
        <mxCell id="ZWVHq4lJaD7Pw3GgsXVH-28" value="100" style="text;html=1;align=center;verticalAlign=middle;resizable=0;points=[];autosize=1;strokeColor=none;fillColor=none;" vertex="1" parent="1">
          <mxGeometry x="140" y="260" width="40" height="30" as="geometry" />
        </mxCell>
        <mxCell id="ZWVHq4lJaD7Pw3GgsXVH-29" style="rounded=0;orthogonalLoop=1;jettySize=auto;html=1;entryX=0.5;entryY=0;entryDx=0;entryDy=0;entryPerimeter=0;endArrow=none;endFill=0;" edge="1" parent="1" source="ZWVHq4lJaD7Pw3GgsXVH-13" target="ZWVHq4lJaD7Pw3GgsXVH-9">
          <mxGeometry relative="1" as="geometry" />
        </mxCell>
        <mxCell id="ZWVHq4lJaD7Pw3GgsXVH-31" value="&lt;div style=&quot;text-align: justify;&quot;&gt;&lt;span style=&quot;font-size: 16px; background-color: initial;&quot;&gt;стандарт, который используется для аутентификация&amp;nbsp;и&lt;/span&gt;&lt;/div&gt;&lt;font style=&quot;font-size: 16px;&quot;&gt;&lt;div style=&quot;text-align: justify;&quot;&gt;&lt;span style=&quot;background-color: initial;&quot;&gt;авторизации пользователя (рабочие станции, мобильные устройства&lt;/span&gt;&lt;/div&gt;&lt;div style=&quot;text-align: justify;&quot;&gt;&lt;span style=&quot;background-color: initial;&quot;&gt;и тд) в сети передачи данных&amp;nbsp;&lt;/span&gt;&lt;/div&gt;&lt;/font&gt;" style="text;html=1;align=center;verticalAlign=middle;resizable=0;points=[];autosize=1;strokeColor=none;fillColor=none;" vertex="1" parent="1">
          <mxGeometry x="279" y="50" width="540" height="70" as="geometry" />
        </mxCell>
        <mxCell id="ZWVHq4lJaD7Pw3GgsXVH-32" value="&lt;div style=&quot;text-align: justify;&quot;&gt;&lt;span style=&quot;font-size: 16px; background-color: initial;&quot;&gt;аутентификация процедура проверки подлинности&lt;/span&gt;&lt;/div&gt;&lt;font style=&quot;font-size: 16px;&quot;&gt;&lt;div style=&quot;text-align: justify;&quot;&gt;&lt;span style=&quot;background-color: initial;&quot;&gt;субъекта на основе предоставленных им данных&amp;nbsp;&lt;/span&gt;&lt;/div&gt;&lt;/font&gt;" style="text;html=1;align=center;verticalAlign=middle;resizable=0;points=[];autosize=1;strokeColor=none;fillColor=none;" vertex="1" parent="1">
          <mxGeometry x="279" y="120" width="400" height="50" as="geometry" />
        </mxCell>
        <mxCell id="ZWVHq4lJaD7Pw3GgsXVH-36" value="&lt;font style=&quot;font-size: 35px;&quot;&gt;EAP Extensible Authentication Protocol&lt;/font&gt;" style="text;html=1;align=center;verticalAlign=middle;resizable=0;points=[];autosize=1;strokeColor=none;fillColor=none;" vertex="1" parent="1">
          <mxGeometry x="99" y="460" width="630" height="60" as="geometry" />
        </mxCell>
        <mxCell id="ZWVHq4lJaD7Pw3GgsXVH-46" style="rounded=0;orthogonalLoop=1;jettySize=auto;html=1;entryX=0;entryY=0.5;entryDx=0;entryDy=0;endArrow=none;endFill=0;" edge="1" parent="1" source="ZWVHq4lJaD7Pw3GgsXVH-37" target="ZWVHq4lJaD7Pw3GgsXVH-39">
          <mxGeometry relative="1" as="geometry" />
        </mxCell>
        <mxCell id="ZWVHq4lJaD7Pw3GgsXVH-37" value="" style="points=[[0.03,0.03,0],[0.5,0,0],[0.97,0.03,0],[1,0.4,0],[0.97,0.745,0],[0.5,1,0],[0.03,0.745,0],[0,0.4,0]];verticalLabelPosition=bottom;sketch=0;html=1;verticalAlign=top;aspect=fixed;align=center;pointerEvents=1;shape=mxgraph.cisco19.workstation;fillColor=#005073;strokeColor=none;" vertex="1" parent="1">
          <mxGeometry x="50" y="570" width="50" height="40" as="geometry" />
        </mxCell>
        <mxCell id="ZWVHq4lJaD7Pw3GgsXVH-38" value="client" style="text;html=1;align=center;verticalAlign=middle;resizable=0;points=[];autosize=1;strokeColor=none;fillColor=none;" vertex="1" parent="1">
          <mxGeometry x="49" y="540" width="50" height="30" as="geometry" />
        </mxCell>
        <mxCell id="ZWVHq4lJaD7Pw3GgsXVH-39" value="switch или точка доступа&amp;nbsp;" style="rounded=1;whiteSpace=wrap;html=1;" vertex="1" parent="1">
          <mxGeometry x="190" y="570" width="120" height="60" as="geometry" />
        </mxCell>
        <mxCell id="ZWVHq4lJaD7Pw3GgsXVH-42" value="authenticator" style="text;html=1;align=center;verticalAlign=middle;resizable=0;points=[];autosize=1;strokeColor=none;fillColor=none;" vertex="1" parent="1">
          <mxGeometry x="200" y="540" width="90" height="30" as="geometry" />
        </mxCell>
        <mxCell id="ZWVHq4lJaD7Pw3GgsXVH-43" value="server authentication" style="text;html=1;align=center;verticalAlign=middle;resizable=0;points=[];autosize=1;strokeColor=none;fillColor=none;" vertex="1" parent="1">
          <mxGeometry x="440" y="540" width="130" height="30" as="geometry" />
        </mxCell>
        <mxCell id="ZWVHq4lJaD7Pw3GgsXVH-44" value="" style="sketch=0;points=[[0.015,0.015,0],[0.985,0.015,0],[0.985,0.985,0],[0.015,0.985,0],[0.25,0,0],[0.5,0,0],[0.75,0,0],[1,0.25,0],[1,0.5,0],[1,0.75,0],[0.75,1,0],[0.5,1,0],[0.25,1,0],[0,0.75,0],[0,0.5,0],[0,0.25,0]];verticalLabelPosition=bottom;html=1;verticalAlign=top;aspect=fixed;align=center;pointerEvents=1;shape=mxgraph.cisco19.server;fillColor=#005073;strokeColor=none;" vertex="1" parent="1">
          <mxGeometry x="452.5" y="575" width="27.500000000000004" height="50" as="geometry" />
        </mxCell>
        <mxCell id="ZWVHq4lJaD7Pw3GgsXVH-45" value="база&lt;br&gt;данных" style="ellipse;whiteSpace=wrap;html=1;" vertex="1" parent="1">
          <mxGeometry x="500" y="570" width="70" height="60" as="geometry" />
        </mxCell>
        <mxCell id="ZWVHq4lJaD7Pw3GgsXVH-47" style="rounded=0;orthogonalLoop=1;jettySize=auto;html=1;entryX=0;entryY=0.5;entryDx=0;entryDy=0;entryPerimeter=0;endArrow=none;endFill=0;" edge="1" parent="1" source="ZWVHq4lJaD7Pw3GgsXVH-39" target="ZWVHq4lJaD7Pw3GgsXVH-44">
          <mxGeometry relative="1" as="geometry" />
        </mxCell>
        <mxCell id="ZWVHq4lJaD7Pw3GgsXVH-48" value="LDAP&lt;br&gt;SMB" style="text;html=1;align=center;verticalAlign=middle;resizable=0;points=[];autosize=1;strokeColor=none;fillColor=none;" vertex="1" parent="1">
          <mxGeometry x="314" y="660" width="50" height="40" as="geometry" />
        </mxCell>
        <mxCell id="ZWVHq4lJaD7Pw3GgsXVH-49" value="" style="sketch=0;points=[[0.015,0.015,0],[0.985,0.015,0],[0.985,0.985,0],[0.015,0.985,0],[0.25,0,0],[0.5,0,0],[0.75,0,0],[1,0.25,0],[1,0.5,0],[1,0.75,0],[0.75,1,0],[0.5,1,0],[0.25,1,0],[0,0.75,0],[0,0.5,0],[0,0.25,0]];verticalLabelPosition=bottom;html=1;verticalAlign=top;aspect=fixed;align=center;pointerEvents=1;shape=mxgraph.cisco19.server;fillColor=#005073;strokeColor=none;" vertex="1" parent="1">
          <mxGeometry x="414" y="680" width="27.500000000000004" height="50" as="geometry" />
        </mxCell>
        <mxCell id="ZWVHq4lJaD7Pw3GgsXVH-50" value="сервер, поддерживающий пользователей" style="text;html=1;align=center;verticalAlign=middle;resizable=0;points=[];autosize=1;strokeColor=none;fillColor=none;" vertex="1" parent="1">
          <mxGeometry x="419" y="660" width="260" height="30" as="geometry" />
        </mxCell>
        <mxCell id="ZWVHq4lJaD7Pw3GgsXVH-51" value="active directory" style="text;html=1;align=center;verticalAlign=middle;resizable=0;points=[];autosize=1;strokeColor=none;fillColor=none;" vertex="1" parent="1">
          <mxGeometry x="377.75" y="730" width="100" height="30" as="geometry" />
        </mxCell>
        <mxCell id="ZWVHq4lJaD7Pw3GgsXVH-52" value="&lt;font style=&quot;font-size: 30px;&quot;&gt;RADIUS Remote Authentication in Dial-in User Service&lt;/font&gt;" style="text;html=1;align=center;verticalAlign=middle;resizable=0;points=[];autosize=1;strokeColor=none;fillColor=none;" vertex="1" parent="1">
          <mxGeometry x="39" y="770" width="750" height="50" as="geometry" />
        </mxCell>
        <mxCell id="ZWVHq4lJaD7Pw3GgsXVH-54" value="&lt;div style=&quot;text-align: justify;&quot;&gt;&lt;span style=&quot;background-color: initial;&quot;&gt;1. Port-Based: после того как порт был авторизован,&lt;/span&gt;&lt;/div&gt;&lt;div style=&quot;text-align: justify;&quot;&gt;&lt;span style=&quot;background-color: initial;&quot;&gt;любой пользователь, подключенный к нему может получить доступ к сети&lt;/span&gt;&lt;/div&gt;" style="text;html=1;align=center;verticalAlign=middle;resizable=0;points=[];autosize=1;strokeColor=none;fillColor=none;" vertex="1" parent="1">
          <mxGeometry x="1.5" y="820" width="440" height="40" as="geometry" />
        </mxCell>
        <mxCell id="ZWVHq4lJaD7Pw3GgsXVH-55" value="" style="points=[[0.03,0.03,0],[0.5,0,0],[0.97,0.03,0],[1,0.4,0],[0.97,0.745,0],[0.5,1,0],[0.03,0.745,0],[0,0.4,0]];verticalLabelPosition=bottom;sketch=0;html=1;verticalAlign=top;aspect=fixed;align=center;pointerEvents=1;shape=mxgraph.cisco19.workstation;fillColor=#005073;strokeColor=none;" vertex="1" parent="1">
          <mxGeometry x="60" y="980" width="50" height="40" as="geometry" />
        </mxCell>
        <mxCell id="ZWVHq4lJaD7Pw3GgsXVH-56" value="" style="points=[[0.03,0.03,0],[0.5,0,0],[0.97,0.03,0],[1,0.4,0],[0.97,0.745,0],[0.5,1,0],[0.03,0.745,0],[0,0.4,0]];verticalLabelPosition=bottom;sketch=0;html=1;verticalAlign=top;aspect=fixed;align=center;pointerEvents=1;shape=mxgraph.cisco19.workstation;fillColor=#005073;strokeColor=none;" vertex="1" parent="1">
          <mxGeometry x="55" y="1040" width="50" height="40" as="geometry" />
        </mxCell>
        <mxCell id="ZWVHq4lJaD7Pw3GgsXVH-57" value="" style="points=[[0.03,0.03,0],[0.5,0,0],[0.97,0.03,0],[1,0.4,0],[0.97,0.745,0],[0.5,1,0],[0.03,0.745,0],[0,0.4,0]];verticalLabelPosition=bottom;sketch=0;html=1;verticalAlign=top;aspect=fixed;align=center;pointerEvents=1;shape=mxgraph.cisco19.workstation;fillColor=#005073;strokeColor=none;" vertex="1" parent="1">
          <mxGeometry x="60" y="930" width="50" height="40" as="geometry" />
        </mxCell>
        <mxCell id="ZWVHq4lJaD7Pw3GgsXVH-58" value="" style="sketch=0;points=[[0.015,0.015,0],[0.985,0.015,0],[0.985,0.985,0],[0.015,0.985,0],[0.25,0,0],[0.5,0,0],[0.75,0,0],[1,0.25,0],[1,0.5,0],[1,0.75,0],[0.75,1,0],[0.5,1,0],[0.25,1,0],[0,0.75,0],[0,0.5,0],[0,0.25,0]];verticalLabelPosition=bottom;html=1;verticalAlign=top;aspect=fixed;align=center;pointerEvents=1;shape=mxgraph.cisco19.rect;prIcon=l2_switch;fillColor=#FAFAFA;strokeColor=#005073;" vertex="1" parent="1">
          <mxGeometry x="180" y="975" width="50" height="50" as="geometry" />
        </mxCell>
        <mxCell id="ZWVHq4lJaD7Pw3GgsXVH-59" value="" style="whiteSpace=wrap;html=1;fillColor=none;dashed=1;" vertex="1" parent="1">
          <mxGeometry x="17.5" y="910" width="135" height="220" as="geometry" />
        </mxCell>
        <mxCell id="ZWVHq4lJaD7Pw3GgsXVH-61" value="&lt;div style=&quot;text-align: justify;&quot;&gt;&lt;span style=&quot;background-color: initial;&quot;&gt;2. MAC-Based аутентификация&amp;nbsp;множества клиентов на одном физическом порту коммутатора. проверяется не&amp;nbsp;&lt;/span&gt;&lt;/div&gt;&lt;div style=&quot;text-align: justify;&quot;&gt;&lt;span style=&quot;background-color: initial;&quot;&gt;только имя и пароль подключенных к порту коммутаторов, но и их количество&amp;nbsp;&lt;/span&gt;&lt;/div&gt;" style="text;html=1;align=center;verticalAlign=middle;resizable=0;points=[];autosize=1;strokeColor=none;fillColor=none;" vertex="1" parent="1">
          <mxGeometry x="5" y="1140" width="650" height="40" as="geometry" />
        </mxCell>
        <mxCell id="ZWVHq4lJaD7Pw3GgsXVH-83" style="rounded=0;orthogonalLoop=1;jettySize=auto;html=1;entryX=0;entryY=0.5;entryDx=0;entryDy=0;endArrow=none;endFill=0;" edge="1" parent="1" source="ZWVHq4lJaD7Pw3GgsXVH-63" target="ZWVHq4lJaD7Pw3GgsXVH-65">
          <mxGeometry relative="1" as="geometry" />
        </mxCell>
        <mxCell id="ZWVHq4lJaD7Pw3GgsXVH-63" value="" style="points=[[0.03,0.03,0],[0.5,0,0],[0.97,0.03,0],[1,0.4,0],[0.97,0.745,0],[0.5,1,0],[0.03,0.745,0],[0,0.4,0]];verticalLabelPosition=bottom;sketch=0;html=1;verticalAlign=top;aspect=fixed;align=center;pointerEvents=1;shape=mxgraph.cisco19.workstation;fillColor=#005073;strokeColor=none;" vertex="1" parent="1">
          <mxGeometry x="5" y="1220" width="50" height="40" as="geometry" />
        </mxCell>
        <mxCell id="ZWVHq4lJaD7Pw3GgsXVH-65" value="AP" style="rounded=0;whiteSpace=wrap;html=1;" vertex="1" parent="1">
          <mxGeometry x="90" y="1220" width="80" height="40" as="geometry" />
        </mxCell>
        <mxCell id="ZWVHq4lJaD7Pw3GgsXVH-66" value="Radius&lt;br&gt;Server" style="whiteSpace=wrap;html=1;aspect=fixed;" vertex="1" parent="1">
          <mxGeometry x="214" y="1205" width="70" height="70" as="geometry" />
        </mxCell>
        <mxCell id="ZWVHq4lJaD7Pw3GgsXVH-67" value="отправитель" style="text;html=1;align=center;verticalAlign=middle;resizable=0;points=[];autosize=1;strokeColor=none;fillColor=none;" vertex="1" parent="1">
          <mxGeometry x="5" y="1328" width="90" height="30" as="geometry" />
        </mxCell>
        <mxCell id="ZWVHq4lJaD7Pw3GgsXVH-68" value="EAP" style="text;html=1;align=center;verticalAlign=middle;resizable=0;points=[];autosize=1;strokeColor=none;fillColor=none;" vertex="1" parent="1">
          <mxGeometry x="224" y="1328" width="50" height="30" as="geometry" />
        </mxCell>
        <mxCell id="ZWVHq4lJaD7Pw3GgsXVH-69" value="Цель" style="text;html=1;align=center;verticalAlign=middle;resizable=0;points=[];autosize=1;strokeColor=none;fillColor=none;" vertex="1" parent="1">
          <mxGeometry x="439" y="1328" width="50" height="30" as="geometry" />
        </mxCell>
        <mxCell id="ZWVHq4lJaD7Pw3GgsXVH-70" value="" style="points=[[0.03,0.03,0],[0.5,0,0],[0.97,0.03,0],[1,0.4,0],[0.97,0.745,0],[0.5,1,0],[0.03,0.745,0],[0,0.4,0]];verticalLabelPosition=bottom;sketch=0;html=1;verticalAlign=top;aspect=fixed;align=center;pointerEvents=1;shape=mxgraph.cisco19.workstation;fillColor=#005073;strokeColor=none;" vertex="1" parent="1">
          <mxGeometry x="17.5" y="1358" width="50" height="40" as="geometry" />
        </mxCell>
        <mxCell id="ZWVHq4lJaD7Pw3GgsXVH-72" value="начало EAP" style="text;html=1;align=center;verticalAlign=middle;resizable=0;points=[];autosize=1;strokeColor=none;fillColor=none;" vertex="1" parent="1">
          <mxGeometry x="199" y="1358" width="90" height="30" as="geometry" />
        </mxCell>
        <mxCell id="ZWVHq4lJaD7Pw3GgsXVH-73" value="запрос запуска процесса ауент" style="text;html=1;align=center;verticalAlign=middle;resizable=0;points=[];autosize=1;strokeColor=none;fillColor=none;" vertex="1" parent="1">
          <mxGeometry x="305" y="1358" width="200" height="30" as="geometry" />
        </mxCell>
        <mxCell id="ZWVHq4lJaD7Pw3GgsXVH-75" value="" style="points=[[0.03,0.03,0],[0.5,0,0],[0.97,0.03,0],[1,0.4,0],[0.97,0.745,0],[0.5,1,0],[0.03,0.745,0],[0,0.4,0]];verticalLabelPosition=bottom;sketch=0;html=1;verticalAlign=top;aspect=fixed;align=center;pointerEvents=1;shape=mxgraph.cisco19.workstation;fillColor=#005073;strokeColor=none;" vertex="1" parent="1">
          <mxGeometry x="99" y="1410" width="50" height="40" as="geometry" />
        </mxCell>
        <mxCell id="ZWVHq4lJaD7Pw3GgsXVH-76" value="получатель" style="text;html=1;align=center;verticalAlign=middle;resizable=0;points=[];autosize=1;strokeColor=none;fillColor=none;" vertex="1" parent="1">
          <mxGeometry x="85" y="1328" width="90" height="30" as="geometry" />
        </mxCell>
        <mxCell id="ZWVHq4lJaD7Pw3GgsXVH-77" value="EAP-запрос/&lt;br&gt;индентиф. данные" style="text;html=1;align=center;verticalAlign=middle;resizable=0;points=[];autosize=1;strokeColor=none;fillColor=none;" vertex="1" parent="1">
          <mxGeometry x="175" y="1410" width="130" height="40" as="geometry" />
        </mxCell>
        <mxCell id="ZWVHq4lJaD7Pw3GgsXVH-78" value="запрос ауент-ции перед предостановлением доступа" style="text;html=1;align=center;verticalAlign=middle;resizable=0;points=[];autosize=1;strokeColor=none;fillColor=none;" vertex="1" parent="1">
          <mxGeometry x="310" y="1410" width="320" height="30" as="geometry" />
        </mxCell>
        <mxCell id="ZWVHq4lJaD7Pw3GgsXVH-79" value="" style="points=[[0.03,0.03,0],[0.5,0,0],[0.97,0.03,0],[1,0.4,0],[0.97,0.745,0],[0.5,1,0],[0.03,0.745,0],[0,0.4,0]];verticalLabelPosition=bottom;sketch=0;html=1;verticalAlign=top;aspect=fixed;align=center;pointerEvents=1;shape=mxgraph.cisco19.workstation;fillColor=#005073;strokeColor=none;" vertex="1" parent="1">
          <mxGeometry x="17.5" y="1470" width="50" height="40" as="geometry" />
        </mxCell>
        <mxCell id="ZWVHq4lJaD7Pw3GgsXVH-81" value="EAP-ответ/&lt;br&gt;индентиф. данные" style="text;html=1;align=center;verticalAlign=middle;resizable=0;points=[];autosize=1;strokeColor=none;fillColor=none;" vertex="1" parent="1">
          <mxGeometry x="170" y="1470" width="130" height="40" as="geometry" />
        </mxCell>
        <mxCell id="ZWVHq4lJaD7Pw3GgsXVH-82" value="ответ на запрос с идентификационными данными" style="text;html=1;align=center;verticalAlign=middle;resizable=0;points=[];autosize=1;strokeColor=none;fillColor=none;" vertex="1" parent="1">
          <mxGeometry x="310" y="1475" width="300" height="30" as="geometry" />
        </mxCell>
        <mxCell id="ZWVHq4lJaD7Pw3GgsXVH-87" value="EAP-ответ/&lt;br&gt;индентиф. данные" style="text;html=1;align=center;verticalAlign=middle;resizable=0;points=[];autosize=1;strokeColor=none;fillColor=none;" vertex="1" parent="1">
          <mxGeometry x="170" y="1535" width="130" height="40" as="geometry" />
        </mxCell>
        <mxCell id="ZWVHq4lJaD7Pw3GgsXVH-88" value="передача запроса серверу ауен-ции" style="text;html=1;align=center;verticalAlign=middle;resizable=0;points=[];autosize=1;strokeColor=none;fillColor=none;" vertex="1" parent="1">
          <mxGeometry x="305" y="1540" width="230" height="30" as="geometry" />
        </mxCell>
        <mxCell id="ZWVHq4lJaD7Pw3GgsXVH-91" value="вызов&amp;nbsp;" style="text;html=1;align=center;verticalAlign=middle;resizable=0;points=[];autosize=1;strokeColor=none;fillColor=none;" vertex="1" parent="1">
          <mxGeometry x="200" y="1610" width="60" height="30" as="geometry" />
        </mxCell>
        <mxCell id="ZWVHq4lJaD7Pw3GgsXVH-92" value="запрос на получение идентификационных данных (логин, пароль или сертификат)" style="text;html=1;align=center;verticalAlign=middle;resizable=0;points=[];autosize=1;strokeColor=none;fillColor=none;" vertex="1" parent="1">
          <mxGeometry x="305" y="1610" width="490" height="30" as="geometry" />
        </mxCell>
        <mxCell id="ZWVHq4lJaD7Pw3GgsXVH-94" value="" style="points=[[0.03,0.03,0],[0.5,0,0],[0.97,0.03,0],[1,0.4,0],[0.97,0.745,0],[0.5,1,0],[0.03,0.745,0],[0,0.4,0]];verticalLabelPosition=bottom;sketch=0;html=1;verticalAlign=top;aspect=fixed;align=center;pointerEvents=1;shape=mxgraph.cisco19.workstation;fillColor=#005073;strokeColor=none;" vertex="1" parent="1">
          <mxGeometry x="95" y="1670" width="50" height="40" as="geometry" />
        </mxCell>
        <mxCell id="ZWVHq4lJaD7Pw3GgsXVH-95" value="вызов" style="text;html=1;align=center;verticalAlign=middle;resizable=0;points=[];autosize=1;strokeColor=none;fillColor=none;" vertex="1" parent="1">
          <mxGeometry x="200" y="1670" width="60" height="30" as="geometry" />
        </mxCell>
        <mxCell id="ZWVHq4lJaD7Pw3GgsXVH-96" value="запрос клиенту" style="text;html=1;align=center;verticalAlign=middle;resizable=0;points=[];autosize=1;strokeColor=none;fillColor=none;" vertex="1" parent="1">
          <mxGeometry x="309" y="1670" width="110" height="30" as="geometry" />
        </mxCell>
        <mxCell id="ZWVHq4lJaD7Pw3GgsXVH-97" value="" style="points=[[0.03,0.03,0],[0.5,0,0],[0.97,0.03,0],[1,0.4,0],[0.97,0.745,0],[0.5,1,0],[0.03,0.745,0],[0,0.4,0]];verticalLabelPosition=bottom;sketch=0;html=1;verticalAlign=top;aspect=fixed;align=center;pointerEvents=1;shape=mxgraph.cisco19.workstation;fillColor=#005073;strokeColor=none;" vertex="1" parent="1">
          <mxGeometry x="17.5" y="1730" width="50" height="40" as="geometry" />
        </mxCell>
        <mxCell id="ZWVHq4lJaD7Pw3GgsXVH-99" value="ответ на вызов" style="text;html=1;align=center;verticalAlign=middle;resizable=0;points=[];autosize=1;strokeColor=none;fillColor=none;" vertex="1" parent="1">
          <mxGeometry x="180" y="1735" width="110" height="30" as="geometry" />
        </mxCell>
        <mxCell id="ZWVHq4lJaD7Pw3GgsXVH-100" value="отправка ответа на вызов" style="text;html=1;align=center;verticalAlign=middle;resizable=0;points=[];autosize=1;strokeColor=none;fillColor=none;" vertex="1" parent="1">
          <mxGeometry x="307.75" y="1735" width="170" height="30" as="geometry" />
        </mxCell>
        <mxCell id="ZWVHq4lJaD7Pw3GgsXVH-101" value="AP" style="rounded=0;whiteSpace=wrap;html=1;" vertex="1" parent="1">
          <mxGeometry x="17.5" y="1790" width="60" height="30" as="geometry" />
        </mxCell>
        <mxCell id="ZWVHq4lJaD7Pw3GgsXVH-102" value="Radius&lt;br&gt;Server" style="whiteSpace=wrap;html=1;aspect=fixed;" vertex="1" parent="1">
          <mxGeometry x="99" y="1780" width="50" height="50" as="geometry" />
        </mxCell>
        <mxCell id="ZWVHq4lJaD7Pw3GgsXVH-104" value="ответ на вызов" style="text;html=1;align=center;verticalAlign=middle;resizable=0;points=[];autosize=1;strokeColor=none;fillColor=none;" vertex="1" parent="1">
          <mxGeometry x="179" y="1790" width="110" height="30" as="geometry" />
        </mxCell>
        <mxCell id="ZWVHq4lJaD7Pw3GgsXVH-105" value="отправка ответа на вызов" style="text;html=1;align=center;verticalAlign=middle;resizable=0;points=[];autosize=1;strokeColor=none;fillColor=none;" vertex="1" parent="1">
          <mxGeometry x="307.75" y="1790" width="170" height="30" as="geometry" />
        </mxCell>
        <mxCell id="ZWVHq4lJaD7Pw3GgsXVH-106" value="AP" style="rounded=0;whiteSpace=wrap;html=1;" vertex="1" parent="1">
          <mxGeometry x="94" y="1735" width="60" height="30" as="geometry" />
        </mxCell>
        <mxCell id="ZWVHq4lJaD7Pw3GgsXVH-107" value="AP" style="rounded=0;whiteSpace=wrap;html=1;" vertex="1" parent="1">
          <mxGeometry x="16.5" y="1670" width="60" height="30" as="geometry" />
        </mxCell>
        <mxCell id="ZWVHq4lJaD7Pw3GgsXVH-108" value="AP" style="rounded=0;whiteSpace=wrap;html=1;" vertex="1" parent="1">
          <mxGeometry x="95" y="1610" width="60" height="30" as="geometry" />
        </mxCell>
        <mxCell id="ZWVHq4lJaD7Pw3GgsXVH-109" value="AP" style="rounded=0;whiteSpace=wrap;html=1;" vertex="1" parent="1">
          <mxGeometry x="95" y="1860" width="60" height="30" as="geometry" />
        </mxCell>
        <mxCell id="ZWVHq4lJaD7Pw3GgsXVH-110" value="сообщение о соединении &lt;br&gt;и ключ для сессии" style="text;html=1;align=center;verticalAlign=middle;resizable=0;points=[];autosize=1;strokeColor=none;fillColor=none;" vertex="1" parent="1">
          <mxGeometry x="170" y="1855" width="170" height="40" as="geometry" />
        </mxCell>
        <mxCell id="ZWVHq4lJaD7Pw3GgsXVH-111" value="Radius&lt;br&gt;Server" style="whiteSpace=wrap;html=1;aspect=fixed;" vertex="1" parent="1">
          <mxGeometry x="17.5" y="1850" width="50" height="50" as="geometry" />
        </mxCell>
        <mxCell id="ZWVHq4lJaD7Pw3GgsXVH-112" value="AP" style="rounded=0;whiteSpace=wrap;html=1;" vertex="1" parent="1">
          <mxGeometry x="17.5" y="1540" width="60" height="30" as="geometry" />
        </mxCell>
        <mxCell id="ZWVHq4lJaD7Pw3GgsXVH-113" value="AP" style="rounded=0;whiteSpace=wrap;html=1;" vertex="1" parent="1">
          <mxGeometry x="16.5" y="1922" width="60" height="30" as="geometry" />
        </mxCell>
        <mxCell id="ZWVHq4lJaD7Pw3GgsXVH-114" value="" style="points=[[0.03,0.03,0],[0.5,0,0],[0.97,0.03,0],[1,0.4,0],[0.97,0.745,0],[0.5,1,0],[0.03,0.745,0],[0,0.4,0]];verticalLabelPosition=bottom;sketch=0;html=1;verticalAlign=top;aspect=fixed;align=center;pointerEvents=1;shape=mxgraph.cisco19.workstation;fillColor=#005073;strokeColor=none;" vertex="1" parent="1">
          <mxGeometry x="105.5" y="1917" width="50" height="40" as="geometry" />
        </mxCell>
        <mxCell id="ZWVHq4lJaD7Pw3GgsXVH-115" value="сообщение о &lt;br&gt;соединении" style="text;html=1;align=center;verticalAlign=middle;resizable=0;points=[];autosize=1;strokeColor=none;fillColor=none;" vertex="1" parent="1">
          <mxGeometry x="189" y="1917" width="100" height="40" as="geometry" />
        </mxCell>
        <mxCell id="ZWVHq4lJaD7Pw3GgsXVH-116" value="запрашивающая сторона успешно ауент" style="text;html=1;align=center;verticalAlign=middle;resizable=0;points=[];autosize=1;strokeColor=none;fillColor=none;" vertex="1" parent="1">
          <mxGeometry x="309" y="1922" width="250" height="30" as="geometry" />
        </mxCell>
        <mxCell id="ZWVHq4lJaD7Pw3GgsXVH-117" value="AP" style="rounded=0;whiteSpace=wrap;html=1;" vertex="1" parent="1">
          <mxGeometry x="16.5" y="1987" width="60" height="30" as="geometry" />
        </mxCell>
        <mxCell id="ZWVHq4lJaD7Pw3GgsXVH-118" value="" style="points=[[0.03,0.03,0],[0.5,0,0],[0.97,0.03,0],[1,0.4,0],[0.97,0.745,0],[0.5,1,0],[0.03,0.745,0],[0,0.4,0]];verticalLabelPosition=bottom;sketch=0;html=1;verticalAlign=top;aspect=fixed;align=center;pointerEvents=1;shape=mxgraph.cisco19.workstation;fillColor=#005073;strokeColor=none;" vertex="1" parent="1">
          <mxGeometry x="105.5" y="1982" width="50" height="40" as="geometry" />
        </mxCell>
        <mxCell id="ZWVHq4lJaD7Pw3GgsXVH-119" value="обмен кючами" style="text;html=1;align=center;verticalAlign=middle;resizable=0;points=[];autosize=1;strokeColor=none;fillColor=none;" vertex="1" parent="1">
          <mxGeometry x="190" y="1982" width="100" height="30" as="geometry" />
        </mxCell>
        <mxCell id="ZWVHq4lJaD7Pw3GgsXVH-120" value="создание ключей шифрования с помощью ключей для сессии" style="text;html=1;align=center;verticalAlign=middle;resizable=0;points=[];autosize=1;strokeColor=none;fillColor=none;" vertex="1" parent="1">
          <mxGeometry x="307.75" y="1982" width="370" height="30" as="geometry" />
        </mxCell>
        <mxCell id="ZWVHq4lJaD7Pw3GgsXVH-121" value="AP" style="rounded=0;whiteSpace=wrap;html=1;" vertex="1" parent="1">
          <mxGeometry x="95" y="1480" width="60" height="30" as="geometry" />
        </mxCell>
        <mxCell id="ZWVHq4lJaD7Pw3GgsXVH-122" value="AP" style="rounded=0;whiteSpace=wrap;html=1;" vertex="1" parent="1">
          <mxGeometry x="17.5" y="1420" width="60" height="30" as="geometry" />
        </mxCell>
        <mxCell id="ZWVHq4lJaD7Pw3GgsXVH-123" value="AP" style="rounded=0;whiteSpace=wrap;html=1;" vertex="1" parent="1">
          <mxGeometry x="100" y="1358" width="60" height="30" as="geometry" />
        </mxCell>
        <mxCell id="ZWVHq4lJaD7Pw3GgsXVH-124" value="Radius&lt;br&gt;Server" style="whiteSpace=wrap;html=1;aspect=fixed;" vertex="1" parent="1">
          <mxGeometry x="17.5" y="1600" width="50" height="50" as="geometry" />
        </mxCell>
        <mxCell id="ZWVHq4lJaD7Pw3GgsXVH-126" value="Radius&lt;br&gt;Server" style="whiteSpace=wrap;html=1;aspect=fixed;" vertex="1" parent="1">
          <mxGeometry x="95" y="1530" width="50" height="50" as="geometry" />
        </mxCell>
        <mxCell id="ZWVHq4lJaD7Pw3GgsXVH-127" style="edgeStyle=orthogonalEdgeStyle;rounded=0;orthogonalLoop=1;jettySize=auto;html=1;exitX=0.5;exitY=1;exitDx=0;exitDy=0;" edge="1" parent="1" source="ZWVHq4lJaD7Pw3GgsXVH-123" target="ZWVHq4lJaD7Pw3GgsXVH-123">
          <mxGeometry relative="1" as="geometry" />
        </mxCell>
        <mxCell id="ZWVHq4lJaD7Pw3GgsXVH-129" value="" style="points=[[0.03,0.03,0],[0.5,0,0],[0.97,0.03,0],[1,0.4,0],[0.97,0.745,0],[0.5,1,0],[0.03,0.745,0],[0,0.4,0]];verticalLabelPosition=bottom;sketch=0;html=1;verticalAlign=top;aspect=fixed;align=center;pointerEvents=1;shape=mxgraph.cisco19.workstation;fillColor=#005073;strokeColor=none;" vertex="1" parent="1">
          <mxGeometry x="20" y="2035" width="50" height="40" as="geometry" />
        </mxCell>
        <mxCell id="ZWVHq4lJaD7Pw3GgsXVH-130" value="AP" style="rounded=0;whiteSpace=wrap;html=1;" vertex="1" parent="1">
          <mxGeometry x="99" y="2040" width="60" height="30" as="geometry" />
        </mxCell>
        <mxCell id="ZWVHq4lJaD7Pw3GgsXVH-131" value="ответ обмена&lt;br&gt;ключами" style="text;html=1;align=center;verticalAlign=middle;resizable=0;points=[];autosize=1;strokeColor=none;fillColor=none;" vertex="1" parent="1">
          <mxGeometry x="195" y="2030" width="100" height="40" as="geometry" />
        </mxCell>
      </root>
    </mxGraphModel>
  </diagram>
</mxfile>
